# xmcd
#
# Track frame offsets: 
#        150
#        16375
#        34348
#        49376
#        69847
#        87455
#        105948
#        121524
#        139257
#        152259
#        170255
#
# Disc length: 2512 seconds
#
# Revision: 0
# Processed by: cddbd v1.5.2PL0 Copyright (c) Steve Scherf et al.
# Submitted via: ExactAudioCopy v0.99pb4
#
DISCID=8009ce0b
DTITLE=Benton Blount - Benton Blount
DYEAR=2012
DGENRE=Country
TTITLE0=Drive
TTITLE1=Never Been Better
TTITLE2=Guilty As Charged
TTITLE3=Here I Am
TTITLE4=That's An American
TTITLE5=I Don't Have To Prove I'm Country
TTITLE6=Gonna Love Lovin' You
TTITLE7=Whiskey Stained Glass
TTITLE8=Long Gone
TTITLE9=God Sent A Woman
TTITLE10=I Don't Have To Prove I'm County (Countrycrunk Remix)
EXTD=
EXTT0=
EXTT1=
EXTT2=
EXTT3=
EXTT4=
EXTT5=
EXTT6=
EXTT7=
EXTT8=
EXTT9=
EXTT10=
PLAYORDER=
